<svg width="1680" height="945" viewBox="0 0 1680 945" fill="none" xmlns="http://www.w3.org/2000/svg">
  <defs>
    <linearGradient id="bg" x1="0" y1="0" x2="1680" y2="945" gradientUnits="userSpaceOnUse">
      <stop offset="0" stop-color="#5E0305"/>
      <stop offset="0.26" stop-color="#78070D"/>
      <stop offset="0.61" stop-color="#351126"/>
      <stop offset="1" stop-color="#08153D"/>
    </linearGradient>
    <radialGradient id="redGlow" cx="0" cy="0" r="1" gradientUnits="userSpaceOnUse" gradientTransform="translate(262 730) rotate(18) scale(545 418)">
      <stop stop-color="#FF4D00" stop-opacity="0.36"/>
      <stop offset="1" stop-color="#FF4D00" stop-opacity="0"/>
    </radialGradient>
    <radialGradient id="blueGlow" cx="0" cy="0" r="1" gradientUnits="userSpaceOnUse" gradientTransform="translate(1430 734) rotate(-14) scale(462 346)">
      <stop stop-color="#3E69FF" stop-opacity="0.34"/>
      <stop offset="1" stop-color="#3E69FF" stop-opacity="0"/>
    </radialGradient>
    <linearGradient id="border" x1="124" y1="118" x2="1560" y2="827" gradientUnits="userSpaceOnUse">
      <stop stop-color="#D89E53"/>
      <stop offset="0.52" stop-color="#F3C675"/>
      <stop offset="1" stop-color="#C98846"/>
    </linearGradient>
    <linearGradient id="waveWarm" x1="250" y1="764" x2="814" y2="914" gradientUnits="userSpaceOnUse">
      <stop stop-color="#FF6C1E"/>
      <stop offset="1" stop-color="#B03A2A" stop-opacity="0"/>
    </linearGradient>
    <linearGradient id="waveCool" x1="1118" y1="776" x2="1550" y2="924" gradientUnits="userSpaceOnUse">
      <stop stop-color="#446BFF"/>
      <stop offset="1" stop-color="#446BFF" stop-opacity="0"/>
    </linearGradient>
  </defs>

  <rect width="1680" height="945" fill="url(#bg)"/>
  <rect width="1680" height="945" fill="url(#redGlow)"/>
  <rect width="1680" height="945" fill="url(#blueGlow)"/>

  <path d="M84 160C84 116.922 118.922 82 162 82H676C726.959 82 763.178 104.819 783.116 136.455C797.779 159.724 824.079 174 853.494 174H960.506C989.921 174 1016.22 159.724 1030.88 136.455C1050.82 104.819 1087.04 82 1138 82H1518C1561.08 82 1596 116.922 1596 160V786C1596 829.078 1561.08 864 1518 864H162C118.922 864 84 829.078 84 786V160Z" stroke="url(#border)" stroke-width="2"/>
  <path d="M742 108H938" stroke="url(#border)" stroke-width="2" stroke-linecap="round"/>
  <path d="M788 118L820 118" stroke="url(#border)" stroke-width="2" stroke-linecap="round"/>
  <path d="M860 118L892 118" stroke="url(#border)" stroke-width="2" stroke-linecap="round"/>
  <path d="M840 94L845.562 108.438H861L848.719 117.124L853.281 131.562L840 122.876L826.719 131.562L831.281 117.124L819 108.438H834.438L840 94Z" fill="#F6C776"/>

  <circle cx="1195" cy="408" r="214" stroke="rgba(227,171,92,0.54)" stroke-width="2"/>
  <circle cx="1195" cy="408" r="260" stroke="rgba(227,171,92,0.4)" stroke-width="2"/>
  <circle cx="1195" cy="408" r="304" stroke="rgba(227,171,92,0.2)" stroke-width="2" stroke-dasharray="6 8"/>

  <path d="M88 782C244 752 302 846 450 838C598 830 654 760 804 768C954 776 1038 852 1182 838C1326 824 1462 742 1594 768" stroke="url(#waveWarm)" stroke-width="3" stroke-linecap="round"/>
  <path d="M84 812C228 786 350 864 512 850C674 836 758 780 898 786C1038 792 1146 858 1308 842C1424 832 1512 800 1592 808" stroke="url(#waveWarm)" stroke-width="2" stroke-linecap="round" opacity="0.7"/>
  <path d="M940 790C1070 764 1190 842 1328 832C1466 822 1522 770 1594 776" stroke="url(#waveCool)" stroke-width="3" stroke-linecap="round"/>
  <path d="M1034 824C1148 800 1262 866 1384 856C1506 846 1554 810 1592 814" stroke="url(#waveCool)" stroke-width="2" stroke-linecap="round" opacity="0.68"/>

  <circle cx="1048" cy="336" r="6" fill="#FFCB73"/>
  <circle cx="1410" cy="224" r="7" fill="#FFCB73"/>
  <circle cx="1498" cy="404" r="6" fill="#FFCB73"/>
  <circle cx="1210" cy="222" r="5" fill="#FFCB73"/>
  <circle cx="1076" cy="528" r="5" fill="#FFCB73"/>
</svg>
